<svg
  xmlns="http://www.w3.org/2000/svg"
  viewBox="0 0 64 64"
  role="img"
  aria-labelledby="title"
>
  <title id="title">Nova phoenix mark</title>

  <!-- Outer rising wings -->
  <path
    fill="#D04738"
    d="M30.5 35.6C23.8 27.8 16.2 17.1 16.5 4c-5.8 9.9-4.1 20.2 5.2 29.1C14.9 28.3 9.4 22 7 15.9c-1 9 4 16.2 14.8 21.8-6.9-1.8-12.3-5.1-16.3-9.1 1.8 8.3 8.2 13.4 18.3 15.6L30.5 35.6Z"
  />
  <path
    fill="#D04738"
    d="M33.5 35.6C40.2 27.8 47.8 17.1 47.5 4c5.8 9.9 4.1 20.2-5.2 29.1 6.8-4.8 12.3-11.1 14.7-17.2 1 9-4 16.2-14.8 21.8 6.9-1.8 12.3-5.1 16.3-9.1-1.8 8.3-8.2 13.4-18.3 15.6L33.5 35.6Z"
  />

  <!-- Inner feathers -->
  <path
    fill="#F36B5B"
    d="M28.5 38.5C21.8 33.8 15.7 28.7 12 22.3c1 8.1 6 14.4 14.6 18.4l1.9-2.2ZM35.5 38.5c6.7-4.7 12.8-9.8 16.5-16.2-1 8.1-6 14.4-14.6 18.4l-1.9-2.2Z"
  />

  <!-- Phoenix body and head -->
  <path
    fill="#D04738"
    d="M32 14.1c-1.5-2.5-1.3-4.9.5-7.1.2 2.1 1.2 3.6 3.1 4.7 2.7 1.5 4.3 3.5 4.6 6.1-1.6-1.2-3.2-1.6-4.8-1.2 2.8.9 4.7 2.6 5.5 5.2-2.9-1.5-5.4-1.3-7.3.6-1.1 1.1-1.6 2.8-1.5 5.1l4.7 13.2-4.8 8.8-4.8-8.8 4.7-13.2c.2-3.3-1.1-5.5-3.8-6.6 1-2.7 2.3-5 4.1-6.8Z"
  />

  <!-- Data-stream tail -->
  <path fill="#D04738" d="m28.3 40.2-5 8.2v8.2l5.1 4.4V48.5l3.6-6.7-3.7-1.6Z" />
  <path fill="#D04738" d="m35.7 40.2 5 8.2v8.2L35.6 61V48.5L32 41.8l3.7-1.6Z" />
  <path fill="#F36B5B" d="M29.7 42.1h4.6v17.6L32 64l-2.3-4.3V42.1Z" />

  <!-- Nova core -->
  <path
    fill="#F59E66"
    d="m32 28.8 2.1 5.1 5.1 2.1-5.1 2.1-2.1 5.1-2.1-5.1-5.1-2.1 5.1-2.1 2.1-5.1Z"
  />
  <path
    fill="#FFF"
    d="m32 31.8 1.1 3.1 3.1 1.1-3.1 1.1-1.1 3.1-1.1-3.1-3.1-1.1 3.1-1.1 1.1-3.1Z"
  />
</svg>
