<svg width="1200" height="320" viewBox="0 0 1200 320" fill="none" xmlns="http://www.w3.org/2000/svg">
  <defs>
    <linearGradient id="bg" x1="0" y1="0" x2="1200" y2="320" gradientUnits="userSpaceOnUse">
      <stop stop-color="#0B1017"/>
      <stop offset="1" stop-color="#111827"/>
    </linearGradient>
    <linearGradient id="accent" x1="78" y1="58" x2="222" y2="202" gradientUnits="userSpaceOnUse">
      <stop stop-color="#FF7A59"/>
      <stop offset="1" stop-color="#E04B2E"/>
    </linearGradient>
    <filter id="shadow" x="34" y="34" width="1132" height="252" filterUnits="userSpaceOnUse" color-interpolation-filters="sRGB">
      <feDropShadow dx="0" dy="18" stdDeviation="18" flood-color="#000000" flood-opacity="0.28"/>
    </filter>
  </defs>

  <rect width="1200" height="320" rx="28" fill="url(#bg)"/>
  <g filter="url(#shadow)">
    <rect x="52" y="52" width="1096" height="216" rx="24" fill="#0F1722" stroke="#273244"/>
  </g>

  <circle cx="150" cy="160" r="72" fill="#1A1010"/>
  <circle cx="150" cy="160" r="44" fill="url(#accent)" fill-opacity="0.16"/>
  <path d="M150 106L163 140L197 140L170 160L181 193L150 173L119 193L130 160L103 140L137 140L150 106Z" fill="url(#accent)"/>

  <text x="260" y="118" fill="#FF7A59" font-family="Inter, Arial, sans-serif" font-size="18" font-weight="700" letter-spacing="0.08em">
    SUPPORT NOVA
  </text>
  <text x="260" y="160" fill="#F8FAFC" font-family="Inter, Arial, sans-serif" font-size="38" font-weight="800">
    Help sustain Nova
  </text>
  <text x="260" y="194" fill="#94A3B8" font-family="Inter, Arial, sans-serif" font-size="20" font-weight="500">
    <tspan x="260" dy="0">If Nova helps your work, you can support</tspan>
    <tspan x="260" dy="26">ongoing development and feature stabilization.</tspan>
  </text>

  <a href="https://ko-fi.com/dwickyferi">
    <rect x="860" y="118" width="228" height="78" rx="18" fill="#FF7A59"/>
    <text x="974" y="166" text-anchor="middle" fill="#FFF7ED" font-family="Inter, Arial, sans-serif" font-size="23" font-weight="800">
      Support on Ko-fi
    </text>
  </a>
</svg>
